<svg width="78" height="84" viewBox="0 0 78 84" fill="none" xmlns="http://www.w3.org/2000/svg">
<path d="M68.25 5.25C69.5429 5.25 70.7829 5.80312 71.6971 6.78769C72.6114 7.77226 73.125 9.10761 73.125 10.5V73.5C73.125 74.8924 72.6114 76.2277 71.6971 77.2123C70.7829 78.1969 69.5429 78.75 68.25 78.75H9.75C8.45707 78.75 7.21709 78.1969 6.30285 77.2123C5.38861 76.2277 4.875 74.8924 4.875 73.5V10.5C4.875 9.10761 5.38861 7.77226 6.30285 6.78769C7.21709 5.80312 8.45707 5.25 9.75 5.25H68.25ZM9.75 0C7.16414 0 4.68419 1.10625 2.85571 3.07538C1.02723 5.04451 0 7.71523 0 10.5L0 73.5C0 76.2848 1.02723 78.9555 2.85571 80.9246C4.68419 82.8938 7.16414 84 9.75 84H68.25C70.8359 84 73.3158 82.8938 75.1443 80.9246C76.9728 78.9555 78 76.2848 78 73.5V10.5C78 7.71523 76.9728 5.04451 75.1443 3.07538C73.3158 1.10625 70.8359 0 68.25 0L9.75 0Z" fill="black"/>
<path d="M43.5335 34.587L32.3698 36.0938L31.97 38.0888L34.1638 38.5245C35.597 38.892 35.8798 39.4485 35.5678 40.9868L31.97 59.1937C31.0243 63.903 32.4819 66.1185 35.909 66.1185C38.5659 66.1185 41.6518 64.7955 43.0509 62.979L43.4799 60.795C42.5049 61.719 41.0814 62.0865 40.1356 62.0865C38.795 62.0865 38.3075 61.0733 38.6536 59.2883L43.5335 34.587ZM43.8748 23.625C43.8748 25.0174 43.3611 26.3527 42.4469 27.3373C41.5327 28.3219 40.2927 28.875 38.9998 28.875C37.7068 28.875 36.4669 28.3219 35.5526 27.3373C34.6384 26.3527 34.1248 25.0174 34.1248 23.625C34.1248 22.2326 34.6384 20.8973 35.5526 19.9127C36.4669 18.9281 37.7068 18.375 38.9998 18.375C40.2927 18.375 41.5327 18.9281 42.4469 19.9127C43.3611 20.8973 43.8748 22.2326 43.8748 23.625Z" fill="black"/>
</svg>
