<svg width="36" height="36" viewBox="0 0 36 36" fill="none" xmlns="http://www.w3.org/2000/svg">
<path d="M0 4.5C0 3.30653 0.474106 2.16193 1.31802 1.31802C2.16193 0.474106 3.30653 0 4.5 0L31.5 0C32.6935 0 33.8381 0.474106 34.682 1.31802C35.5259 2.16193 36 3.30653 36 4.5V31.5C36 32.6935 35.5259 33.8381 34.682 34.682C33.8381 35.5259 32.6935 36 31.5 36H4.5C3.30653 36 2.16193 35.5259 1.31802 34.682C0.474106 33.8381 0 32.6935 0 31.5V4.5ZM20.0925 14.823L14.94 15.4688L14.7555 16.3238L15.768 16.5105C16.4295 16.668 16.56 16.9065 16.416 17.5658L14.7555 25.3687C14.319 27.387 14.9918 28.3365 16.5735 28.3365C17.7998 28.3365 19.224 27.7695 19.8698 26.991L20.0677 26.055C19.6177 26.451 18.9607 26.6085 18.5242 26.6085C17.9055 26.6085 17.6805 26.1743 17.8402 25.4093L20.0925 14.823ZM18 12.375C18.5967 12.375 19.169 12.1379 19.591 11.716C20.0129 11.294 20.25 10.7217 20.25 10.125C20.25 9.52826 20.0129 8.95597 19.591 8.53401C19.169 8.11205 18.5967 7.875 18 7.875C17.4033 7.875 16.831 8.11205 16.409 8.53401C15.9871 8.95597 15.75 9.52826 15.75 10.125C15.75 10.7217 15.9871 11.294 16.409 11.716C16.831 12.1379 17.4033 12.375 18 12.375Z" fill="black"/>
</svg>
