<svg width="584" height="446" viewBox="0 0 584 446" fill="none" xmlns="http://www.w3.org/2000/svg">
<circle cx="433.452" cy="150.5" r="81.5" fill="#4B4B4B"/>
<path d="M433.952 0L459.933 51.75H407.972L433.952 0Z" fill="#4B4B4B"/>
<path d="M283 150.055L334.75 124.074V176.036L283 150.055Z" fill="#4B4B4B"/>
<path d="M542.956 260.004L487.992 241.782L524.734 205.04L542.956 260.004Z" fill="#4B4B4B"/>
<path d="M327.165 256.004L345.387 201.04L382.129 237.782L327.165 256.004Z" fill="#4B4B4B"/>
<path d="M538.956 44.2132L520.734 99.1771L483.992 62.4348L538.956 44.2132Z" fill="#4B4B4B"/>
<path d="M327.165 44.2132L382.129 62.4348L345.387 99.1771L327.165 44.2132Z" fill="#4B4B4B"/>
<path d="M583.952 150L532.202 175.981V124.019L583.952 150Z" fill="#4B4B4B"/>
<path d="M434.07 301.103L408.09 249.353H460.051L434.07 301.103Z" fill="#4B4B4B"/>
<path d="M142.92 132.531C175.34 104.574 216.69 89.1342 259.5 89C346.757 89 419.19 153.875 427.072 237.531C478.713 244.83 519 288.069 519 341.137C519 399.394 470.409 445.812 411.535 445.812H122.646C55.4032 445.812 0 392.81 0 326.378C0 269.19 41.0659 221.832 95.4311 209.83C100.07 181.836 118.073 153.94 142.92 132.531V132.531Z" fill="black"/>
</svg>
