<svg width="519" height="463" viewBox="0 0 519 463" fill="none" xmlns="http://www.w3.org/2000/svg">
<circle cx="138" cy="380" r="28" fill="black"/>
<path d="M138 318L163.981 369.75H112.019L138 318Z" fill="black"/>
<circle cx="257" cy="435" r="28" fill="black"/>
<path d="M257 373L282.981 424.75H231.019L257 373Z" fill="black"/>
<circle cx="382" cy="362" r="28" fill="black"/>
<path d="M382 300L407.981 351.75H356.019L382 300Z" fill="black"/>
<path d="M142.92 35.014C175.34 12.5272 216.69 0.107978 259.5 0C346.757 0 419.19 52.1818 427.072 119.47C478.713 125.341 519 160.12 519 202.805C519 249.664 470.409 287 411.535 287H122.646C55.4032 287 0 244.367 0 190.933C0 144.935 41.0659 106.842 95.4311 97.1886C100.07 74.6722 118.073 52.234 142.92 35.014V35.014Z" fill="black"/>
</svg>
