<svg width="325" height="325" viewBox="0 0 325 325" fill="none" xmlns="http://www.w3.org/2000/svg">
<rect x="153" y="9" width="19" height="300" fill="black"/>
<circle cx="162.5" cy="9.5" r="9.5" fill="black"/>
<rect x="112.968" y="25.2495" width="19" height="72.9079" transform="rotate(-35.6724 112.968 25.2495)" fill="black"/>
<circle cx="120.5" cy="19.5" r="9.5" fill="black"/>
<rect x="197.514" y="13" width="19" height="72.9079" transform="rotate(35.67 197.514 13)" fill="black"/>
<circle cx="205.28" cy="18.2801" r="9.5" transform="rotate(94.9223 205.28 18.2801)" fill="black"/>
<rect x="172" y="316" width="19" height="300" transform="rotate(-180 172 316)" fill="black"/>
<circle cx="162.5" cy="315.5" r="9.5" transform="rotate(-180 162.5 315.5)" fill="black"/>
<rect x="212.032" y="299.751" width="19" height="72.9079" transform="rotate(144.328 212.032 299.751)" fill="black"/>
<circle cx="204.5" cy="305.5" r="9.5" transform="rotate(-180 204.5 305.5)" fill="black"/>
<rect x="127.486" y="312" width="19" height="72.9079" transform="rotate(-144.33 127.486 312)" fill="black"/>
<circle cx="119.72" cy="306.72" r="9.5" transform="rotate(-85.0777 119.72 306.72)" fill="black"/>
<rect x="9" y="172" width="19" height="300" transform="rotate(-90 9 172)" fill="black"/>
<circle cx="9.5" cy="162.5" r="9.5" transform="rotate(-90 9.5 162.5)" fill="black"/>
<rect x="25.2495" y="212.032" width="19" height="72.9079" transform="rotate(-125.672 25.2495 212.032)" fill="black"/>
<circle cx="19.5" cy="204.5" r="9.5" transform="rotate(-90 19.5 204.5)" fill="black"/>
<rect x="13" y="127.486" width="19" height="72.9079" transform="rotate(-54.33 13 127.486)" fill="black"/>
<circle cx="18.2802" cy="119.72" r="9.5" transform="rotate(4.92231 18.2802 119.72)" fill="black"/>
<rect x="316" y="153" width="19" height="300" transform="rotate(90 316 153)" fill="black"/>
<circle cx="315.5" cy="162.5" r="9.5" transform="rotate(90 315.5 162.5)" fill="black"/>
<rect x="299.75" y="112.968" width="19" height="72.9079" transform="rotate(54.3276 299.75 112.968)" fill="black"/>
<circle cx="305.5" cy="120.5" r="9.5" transform="rotate(90 305.5 120.5)" fill="black"/>
<rect x="312" y="197.514" width="19" height="72.9079" transform="rotate(125.67 312 197.514)" fill="black"/>
<circle cx="306.72" cy="205.28" r="9.5" transform="rotate(-175.078 306.72 205.28)" fill="black"/>
<rect x="47.2417" y="60.6766" width="19" height="300" transform="rotate(-45 47.2417 60.6766)" fill="black"/>
<circle cx="54.3127" cy="54.3127" r="9.5" transform="rotate(-45 54.3127 54.3127)" fill="black"/>
<rect x="30.425" y="100.473" width="19" height="72.9079" transform="rotate(-80.6724 30.425 100.473)" fill="black"/>
<circle cx="31.6853" cy="91.0822" r="9.5" transform="rotate(-45 31.6853 91.0822)" fill="black"/>
<rect x="81.5459" y="32.0292" width="19" height="72.9079" transform="rotate(-9.33 81.5459 32.0292)" fill="black"/>
<circle cx="90.7713" cy="30.271" r="9.5" transform="rotate(49.9223 90.7713 30.271)" fill="black"/>
<rect x="277.759" y="264.323" width="19" height="300" transform="rotate(135 277.759 264.323)" fill="black"/>
<circle cx="270.688" cy="270.687" r="9.5" transform="rotate(135 270.688 270.687)" fill="black"/>
<rect x="294.575" y="224.527" width="19" height="72.9079" transform="rotate(99.3276 294.575 224.527)" fill="black"/>
<circle cx="293.315" cy="233.918" r="9.5" transform="rotate(135 293.315 233.918)" fill="black"/>
<rect x="243.454" y="292.971" width="19" height="72.9079" transform="rotate(170.67 243.454 292.971)" fill="black"/>
<circle cx="234.229" cy="294.729" r="9.5" transform="rotate(-130.078 234.229 294.729)" fill="black"/>
<rect x="264.323" y="47.2416" width="19" height="300" transform="rotate(45 264.323 47.2416)" fill="black"/>
<circle cx="270.688" cy="54.3127" r="9.5" transform="rotate(45 270.688 54.3127)" fill="black"/>
<rect x="224.527" y="30.425" width="19" height="72.9079" transform="rotate(9.32758 224.527 30.425)" fill="black"/>
<circle cx="233.918" cy="31.6852" r="9.5" transform="rotate(45 233.918 31.6852)" fill="black"/>
<rect x="292.971" y="81.546" width="19" height="72.9079" transform="rotate(80.67 292.971 81.546)" fill="black"/>
<circle cx="294.729" cy="90.7713" r="9.5" transform="rotate(139.922 294.729 90.7713)" fill="black"/>
<rect x="60.6768" y="277.758" width="19" height="300" transform="rotate(-135 60.6768 277.758)" fill="black"/>
<circle cx="54.3127" cy="270.687" r="9.5" transform="rotate(-135 54.3127 270.687)" fill="black"/>
<rect x="100.474" y="294.575" width="19" height="72.9079" transform="rotate(-170.672 100.474 294.575)" fill="black"/>
<circle cx="91.0823" cy="293.315" r="9.5" transform="rotate(-135 91.0823 293.315)" fill="black"/>
<rect x="32.0293" y="243.454" width="19" height="72.9079" transform="rotate(-99.33 32.0293 243.454)" fill="black"/>
<circle cx="30.271" cy="234.229" r="9.5" transform="rotate(-40.0777 30.271 234.229)" fill="black"/>
</svg>
