<svg width="301" height="302" viewBox="0 0 301 302" fill="none" xmlns="http://www.w3.org/2000/svg">
<circle cx="150.5" cy="150.5" r="81.5" fill="black"/>
<path d="M151 0L176.981 51.75H125.019L151 0Z" fill="black"/>
<path d="M0.0477295 150.055L51.7977 124.074V176.036L0.0477295 150.055Z" fill="black"/>
<path d="M260.004 260.004L205.04 241.782L241.782 205.04L260.004 260.004Z" fill="black"/>
<path d="M44.2132 256.004L62.4348 201.04L99.1771 237.782L44.2132 256.004Z" fill="black"/>
<path d="M256.004 44.2132L237.782 99.1771L201.04 62.4348L256.004 44.2132Z" fill="black"/>
<path d="M44.2132 44.2132L99.1771 62.4348L62.4348 99.1771L44.2132 44.2132Z" fill="black"/>
<path d="M301 150L249.25 175.981V124.019L301 150Z" fill="black"/>
<path d="M151.118 301.103L125.137 249.353H177.099L151.118 301.103Z" fill="black"/>
</svg>
